<?xml version="1.0" standalone="no"?>
<!DOCTYPE svg PUBLIC "-//W3C//DTD SVG 20010904//EN"
 "http://www.w3.org/TR/2001/REC-SVG-20010904/DTD/svg10.dtd">
<svg version="1.0" xmlns="http://www.w3.org/2000/svg"
 width="420.000000pt" height="420.000000pt" viewBox="0 0 420.000000 420.000000"
 preserveAspectRatio="xMidYMid meet">
<metadata>
Created by potrace 1.14, written by Peter Selinger 2001-2017
</metadata>
<g transform="translate(0.000000,420.000000) scale(0.100000,-0.100000)"
fill="#000000" stroke="none">
<path d="M1882 4189 c-34 -4 -79 -11 -100 -14 -20 -3 -50 -8 -67 -10 -87 -12
-344 -89 -415 -125 -19 -10 -38 -18 -42 -19 -23 -4 -104 -44 -110 -54 -4 -7
-8 -9 -8 -5 0 18 -274 -154 -347 -219 -18 -15 -45 -38 -60 -50 -39 -30 -192
-182 -230 -229 -18 -21 -53 -66 -77 -99 -25 -33 -50 -64 -54 -70 -42 -52 -192
-327 -192 -352 0 -7 -4 -13 -10 -13 -5 0 -10 -6 -10 -12 0 -10 -20 -68 -57
-168 -8 -19 -6 -14 -41 -155 -29 -114 -34 -140 -52 -280 -21 -160 6 -564 46
-697 3 -9 6 -25 8 -35 22 -110 170 -480 198 -491 4 -2 8 -9 8 -16 0 -14 90
-159 120 -193 11 -13 17 -23 14 -23 -3 0 1 -6 8 -13 7 -8 27 -31 43 -52 252
-320 623 -575 1010 -696 73 -23 217 -59 259 -65 17 -2 42 -6 56 -9 61 -14 157
-19 320 -19 218 0 310 10 475 50 55 14 109 27 120 29 34 8 170 58 179 67 6 4
17 8 25 8 47 0 415 214 506 294 17 15 43 37 58 49 38 30 162 152 215 213 92
105 129 155 195 263 29 47 58 95 65 106 21 34 62 123 62 134 0 6 4 11 10 11 5
0 15 19 21 43 7 23 15 47 19 52 4 6 14 33 24 60 10 28 20 57 23 65 8 19 7 17
36 130 25 95 32 129 43 205 3 22 8 51 10 65 10 48 12 385 4 455 -18 149 -21
170 -40 250 -6 28 -13 59 -16 70 -2 11 -13 49 -25 85 -12 36 -22 70 -24 75 -1
6 -6 19 -10 30 -67 167 -101 240 -167 351 -53 91 -156 237 -169 242 -5 2 -9 7
-9 11 0 20 -155 179 -272 281 -86 75 -311 230 -334 230 -7 0 -14 4 -16 9 -6
15 -171 88 -353 157 -26 9 -23 8 -145 39 -130 33 -133 34 -199 41 -30 3 -59 8
-65 11 -15 10 -392 11 -464 2z"/>
</g>
</svg>
